<?xml version="1.0" standalone="no"?>
<!DOCTYPE svg PUBLIC "-//W3C//DTD SVG 20010904//EN"
 "http://www.w3.org/TR/2001/REC-SVG-20010904/DTD/svg10.dtd">
<svg version="1.0" xmlns="http://www.w3.org/2000/svg"
 width="260.000000pt" height="260.000000pt" viewBox="0 0 260.000000 260.000000"
 preserveAspectRatio="xMidYMid meet">
<metadata>
Created by potrace 1.14, written by Peter Selinger 2001-2017
</metadata>
<g transform="translate(0.000000,260.000000) scale(0.100000,-0.100000)"
fill="#000000" stroke="none">
<path d="M0 1300 l0 -1300 1300 0 1300 0 0 1300 0 1300 -1300 0 -1300 0 0
-1300z m1240 241 l0 -210 26 -20 c34 -27 74 -27 108 0 l26 20 0 210 0 209 160
0 160 0 0 -223 c0 -255 -6 -289 -71 -386 -73 -109 -191 -171 -328 -171 -190 0
-332 107 -390 294 -18 60 -21 93 -21 270 0 112 3 206 7 209 3 4 78 7 165 7
l158 0 0 -209z m1300 94 l0 -115 -110 0 -110 0 0 -275 0 -275 -160 0 -160 0
-2 273 -3 272 -117 3 -118 3 0 114 0 115 390 0 390 0 0 -115z m-1690 -5 l0
-110 -201 0 c-116 0 -208 -4 -219 -10 -25 -13 -42 -74 -30 -105 16 -41 38 -45
250 -45 l200 0 -2 -192 -3 -193 -230 -3 c-289 -4 -325 4 -415 85 -33 31 -73
79 -88 107 -26 48 -27 58 -27 191 0 134 1 142 28 193 39 74 99 136 160 167 51
25 52 25 314 25 l263 0 0 -110z"/>
</g>
</svg>
